<svg width="24" height="24" xmlns="http://www.w3.org/2000/svg">

 <g>
  <title>Layer 1</title>
  <path id="svg_1" d="m12,6l0,-4m0,4c2.49833,0.04441 4.00562,0 5,0c2,0 4,0.5 5,4c1,3.5 1,5.5 1,8c0,2.5 -2,3 -4,3c-2,0 -3.05435,-4 -7,-4c-3.94565,0 -5,4 -7,4c-2,0 -4,-0.5 -4,-3c0,-2.5 0,-4.5 1,-8c1,-3.5 3,-4 5,-4c0.99438,0 2.50167,0.04441 5,0l0,0l0,0zm6,9c0.55228,0 1,-0.44772 1,-1c0,-0.55228 -0.44772,-1 -1,-1c-0.55228,0 -1,0.44772 -1,1c0,0.55228 0.44772,1 1,1zm-4,-3c0.55228,0 1,-0.44772 1,-1c0,-0.55228 -0.44772,-1 -1,-1c-0.55228,0 -1,0.44772 -1,1c0,0.55228 0.44772,1 1,1zm-10,0l6,0m-3,-3l0,6" stroke-width="2" stroke="#ffffff" fill="none"/>
 </g>
</svg>