<svg width="512" height="512" xmlns="http://www.w3.org/2000/svg" fill="#000000" version="1.1" xml:space="preserve">
 <g>
  <title>Layer 1</title>
  <g id="svg_1">
   <g id="svg_2">
    <g id="svg_3">
     <path d="m469.333,264.533c4.719,0 8.533,-3.823 8.533,-8.533s-3.814,-8.533 -8.533,-8.533l-25.813,0c-0.495,-10.854 -1.929,-21.461 -4.19,-31.761l24.943,-6.682c4.548,-1.212 7.253,-5.897 6.033,-10.445c-1.212,-4.565 -5.897,-7.253 -10.445,-6.042l-24.926,6.682c-3.268,-10.274 -7.415,-20.147 -12.331,-29.568l22.409,-12.937c4.087,-2.355 5.487,-7.569 3.132,-11.656c-2.372,-4.087 -7.595,-5.478 -11.665,-3.123l-22.434,12.945c-5.786,-9.011 -12.279,-17.519 -19.482,-25.395l18.313,-18.313c3.328,-3.328 3.328,-8.73 0,-12.066c-3.337,-3.328 -8.738,-3.328 -12.066,0l-18.313,18.313c-7.876,-7.194 -16.393,-13.696 -25.404,-19.482l12.945,-22.426c2.364,-4.079 0.964,-9.301 -3.123,-11.665c-4.07,-2.355 -9.301,-0.956 -11.657,3.132l-12.937,22.4c-9.421,-4.907 -19.294,-9.054 -29.568,-12.322l6.69,-24.909c1.22,-4.557 -1.476,-9.233 -6.033,-10.453c-4.531,-1.212 -9.233,1.485 -10.453,6.025l-6.69,24.943c-10.3,-2.261 -20.898,-3.686 -31.761,-4.181l0.009,-25.813c0,-4.71 -3.814,-8.533 -8.533,-8.533c-4.71,0 -8.533,3.823 -8.533,8.533l-0.008,25.813c-10.846,0.495 -21.453,1.929 -31.753,4.19l-6.682,-24.943c-1.22,-4.548 -5.888,-7.262 -10.445,-6.033c-4.557,1.212 -7.262,5.897 -6.033,10.445l6.673,24.934c-10.274,3.268 -20.147,7.415 -29.568,12.322l-12.928,-22.409c-2.355,-4.087 -7.569,-5.487 -11.648,-3.132c-4.087,2.355 -5.487,7.578 -3.132,11.657l12.945,22.443c-9.011,5.794 -17.519,12.288 -25.395,19.49l-18.304,-18.321c-3.336,-3.337 -8.738,-3.328 -12.075,-0.009c-3.328,3.336 -3.328,8.738 0,12.075l18.304,18.321c-7.185,7.876 -13.688,16.393 -19.465,25.404l-22.434,-12.971c-4.079,-2.364 -9.301,-0.964 -11.657,3.123c-2.355,4.079 -0.964,9.293 3.115,11.657l22.417,12.954c-4.907,9.421 -9.054,19.294 -12.322,29.568l-24.926,-6.707c-4.531,-1.203 -9.225,1.476 -10.453,6.033c-1.22,4.548 1.476,9.233 6.025,10.453l24.96,6.707c-2.261,10.3 -3.686,20.898 -4.181,31.753l-25.822,-0.017l-0.008,0c-4.71,0 -8.525,3.814 -8.533,8.525c0,4.719 3.814,8.542 8.525,8.542l25.839,0.017c0.495,10.854 1.929,21.461 4.19,31.761l-24.951,6.656c-4.557,1.22 -7.262,5.897 -6.05,10.453c1.024,3.814 4.471,6.332 8.243,6.332c0.734,0 1.468,-0.094 2.202,-0.29l24.96,-6.665c3.268,10.266 7.415,20.139 12.322,29.56l-22.417,12.911c-4.087,2.355 -5.487,7.578 -3.14,11.656c1.579,2.739 4.446,4.275 7.407,4.275c1.442,0 2.901,-0.367 4.25,-1.135l22.46,-12.945c5.786,9.011 12.279,17.519 19.482,25.395l-18.33,18.295c-3.337,3.328 -3.345,8.73 -0.017,12.066c1.673,1.673 3.857,2.509 6.042,2.509s4.369,-0.828 6.033,-2.492l18.338,-18.304c7.876,7.185 16.384,13.687 25.395,19.465l-12.971,22.426c-2.355,4.079 -0.964,9.293 3.123,11.656c1.34,0.777 2.807,1.143 4.258,1.143c2.944,0 5.811,-1.519 7.398,-4.258l12.954,-22.409c9.421,4.907 19.294,9.054 29.568,12.322l-6.699,24.909c-1.229,4.557 1.468,9.233 6.025,10.462c0.734,0.196 1.485,0.29 2.219,0.29c3.763,0 7.211,-2.509 8.235,-6.315l6.707,-24.951c10.3,2.27 20.907,3.695 31.753,4.19l-0.017,25.805c0,4.719 3.814,8.542 8.525,8.542l0.008,0c4.71,0 8.533,-3.814 8.533,-8.525l0.017,-25.822c10.846,-0.495 21.461,-1.92 31.761,-4.19l6.664,24.943c1.016,3.814 4.463,6.332 8.235,6.332c0.734,0 1.476,-0.094 2.21,-0.29c4.557,-1.22 7.253,-5.897 6.042,-10.453l-6.665,-24.926c10.266,-3.268 20.147,-7.415 29.559,-12.322l12.919,22.409c1.57,2.739 4.446,4.267 7.398,4.267c1.442,0 2.91,-0.367 4.25,-1.135c4.087,-2.355 5.495,-7.578 3.132,-11.657l-12.928,-22.443c9.003,-5.786 17.519,-12.279 25.395,-19.482l18.287,18.313c1.664,1.673 3.857,2.509 6.042,2.509c2.185,0 4.361,-0.836 6.033,-2.5c3.328,-3.328 3.328,-8.73 0.009,-12.066l-18.304,-18.321c7.202,-7.876 13.696,-16.384 19.482,-25.395l22.4,12.954c1.357,0.777 2.825,1.143 4.267,1.143c2.953,0 5.82,-1.527 7.398,-4.267c2.364,-4.079 0.964,-9.293 -3.115,-11.657l-22.391,-12.945c4.907,-9.421 9.054,-19.302 12.322,-29.568l24.9,6.69c0.742,0.205 1.493,0.299 2.219,0.299c3.763,0 7.211,-2.509 8.235,-6.323c1.229,-4.548 -1.476,-9.233 -6.025,-10.453l-24.934,-6.699c2.27,-10.3 3.695,-20.907 4.19,-31.753l25.81,0l0,-0.001zm-213.333,162.134c-94.106,0 -170.667,-76.561 -170.667,-170.667s76.561,-170.667 170.667,-170.667s170.667,76.561 170.667,170.667s-76.561,170.667 -170.667,170.667z" id="svg_4" fill="#ff930f"/>
     <path d="m358.4,230.4c-11.11,0 -20.489,7.151 -24.021,17.067l-27.947,0c-3.618,-21.393 -20.506,-38.281 -41.899,-41.899l0,-27.938c9.907,-3.541 17.067,-12.919 17.067,-24.03c0,-14.114 -11.486,-25.6 -25.6,-25.6s-25.6,11.486 -25.6,25.6c0,11.11 7.151,20.489 17.067,24.021l0,27.947c-21.393,3.618 -38.281,20.506 -41.899,41.899l-27.938,0c-3.541,-9.916 -12.919,-17.067 -24.03,-17.067c-14.114,0 -25.6,11.486 -25.6,25.6s11.486,25.6 25.6,25.6c11.11,0 20.489,-7.151 24.03,-17.067l27.938,0c3.618,21.393 20.506,38.281 41.899,41.899l0,27.938c-9.916,3.541 -17.067,12.919 -17.067,24.03c0,14.114 11.486,25.6 25.6,25.6s25.6,-11.486 25.6,-25.6c0,-11.11 -7.159,-20.489 -17.067,-24.03l0,-27.938c21.393,-3.618 38.281,-20.506 41.899,-41.899l27.947,0c3.533,9.916 12.911,17.067 24.021,17.067c14.114,0 25.6,-11.486 25.6,-25.6s-11.486,-25.6 -25.6,-25.6zm-204.8,34.133c-4.702,0 -8.533,-3.831 -8.533,-8.533c0,-4.702 3.831,-8.533 8.533,-8.533c4.702,0 8.533,3.831 8.533,8.533c0,4.702 -3.831,8.533 -8.533,8.533zm102.4,-119.466c4.702,0 8.533,3.831 8.533,8.533c0,4.702 -3.831,8.533 -8.533,8.533c-4.702,0 -8.533,-3.831 -8.533,-8.533c0,-4.702 3.831,-8.533 8.533,-8.533zm0,221.866c-4.702,0 -8.533,-3.831 -8.533,-8.533s3.831,-8.533 8.533,-8.533c4.702,0 8.533,3.831 8.533,8.533s-3.831,8.533 -8.533,8.533zm0,-76.8c-18.825,0 -34.133,-15.309 -34.133,-34.133c0,-18.825 15.309,-34.133 34.133,-34.133c18.825,0 34.133,15.309 34.133,34.133c0,18.825 -15.308,34.133 -34.133,34.133zm102.4,-25.6c-4.71,0 -8.533,-3.831 -8.533,-8.533c0,-4.702 3.823,-8.533 8.533,-8.533s8.533,3.831 8.533,8.533c0,4.702 -3.823,8.533 -8.533,8.533z" id="svg_5" fill="#ff930f"/>
     <path d="m256,0c-141.158,0 -256,114.842 -256,256s114.842,256 256,256s256,-114.842 256,-256s-114.842,-256 -256,-256zm0,494.933c-131.746,0 -238.933,-107.187 -238.933,-238.933s107.187,-238.933 238.933,-238.933s238.933,107.187 238.933,238.933s-107.187,238.933 -238.933,238.933z" id="svg_6" fill="#ff930f"/>
    </g>
   </g>
  </g>
 </g>

</svg>