<svg width="24" height="24" xmlns="http://www.w3.org/2000/svg" role="img" fill="#000000">

 <g>
  <title>Layer 1</title>
  <path fill="#fe5000" id="svg_1" d="m23.849,14.91c-0.24,2.94 -2.73,5.22 -5.7,5.19l-3.15,0l-6,3.9l0,-3.9l6,-3.9l3.15,0c0.93,0.03 1.71,-0.66 1.83,-1.59c0.18,-3 0.18,-6 -0.06,-9c-0.06,-0.84 -0.75,-1.47 -1.56,-1.53c-2.04,-0.09 -4.2,-0.18 -6.36,-0.18s-4.32,0.06 -6.36,0.21c-0.84,0.06 -1.5,0.69 -1.56,1.53c-0.21,3 -0.24,6 -0.06,9c0.09,0.93 0.9,1.59 1.83,1.56l3.15,0l0,3.9l-3.15,0a5.644,5.644 0 0 1 -5.7,-5.19c-0.21,-3.21 -0.18,-6.39 0.06,-9.6a5.57,5.57 0 0 1 5.19,-5.1c2.1,-0.15 4.35,-0.21 6.6,-0.21s4.5,0.06 6.63,0.24a5.57,5.57 0 0 1 5.19,5.1c0.21,3.18 0.24,6.39 0.03,9.57z"/>
 </g>
</svg>