<svg xmlns="http://www.w3.org/2000/svg" width="494" height="105" fill="none" viewBox="0 0 494 105"><g fill="#1BA0E2" clip-path="url(#clip0_105_20301)"><path d="M-121.237-17.997c2.348-3.885 6.719 82.869 6.719 82.869s81.347 43.125 254.578-36.277c173.23-79.401 232.958 52.555 348.543-3.677C604.188-31.314 664.121-51.386 742.139-55.13c78.017-3.744 379.081 2.038 388.671 21.769l-7.21-88.909L-118.592-18.219" opacity=".1"/><path d="M1024.86-117.071s5.39 66.582 6.24 76.985c-2.23 2.691-228.273 48.048-359.636 37.764C540.101-12.604 510.498-30.578 427.38-5.946 344.126 18.698 342.923 47.46 207.2 50.48 71.477 53.5 49.489-46.64-48.061 51.55l-6.342-78.217 1079.263-90.403Z" opacity=".1"/><path d="M964.353-58.241s-36.867.781-126.13 50.768c-89.264 49.988-134.931 49.968-187.094 38.41-52.162-11.558-152.318-40.406-213.561-17.042-61.243 23.364-111.512 23.73-224.907-10.05-113.518-33.66-137.515 99.724-328.146 71.644l-5.954-73.427L961.885-88.681" opacity=".1"/></g><defs><clipPath id="clip0_105_20301"><path fill="#fff" d="M494 105H0V0h494z"/></clipPath></defs></svg>